<mxfile host="app.diagrams.net" modified="2020-09-08T03:08:51.408Z" agent="5.0 (Windows)" etag="65EXrVJ7zQYY5Rre2Uo_" version="13.6.6" type="github">
  <diagram name="Page-1" id="e7e014a7-5840-1c2e-5031-d8a46d1fe8dd">
    <mxGraphModel dx="1422" dy="763" grid="1" gridSize="10" guides="1" tooltips="1" connect="1" arrows="1" fold="1" page="1" pageScale="1" pageWidth="1169" pageHeight="826" background="#ffffff" math="0" shadow="0">
      <root>
        <mxCell id="0" />
        <mxCell id="1" parent="0" />
        <mxCell id="gbzLaKsE3nWGy_o_F9zT-45" value="class SrsHybridServer" style="swimlane;fontStyle=1;align=center;verticalAlign=top;childLayout=stackLayout;horizontal=1;startSize=26;horizontalStack=0;resizeParent=1;resizeParentMax=0;resizeLast=0;collapsible=1;marginBottom=0;" vertex="1" parent="1">
          <mxGeometry x="600" y="65" width="370" height="140" as="geometry" />
        </mxCell>
        <mxCell id="gbzLaKsE3nWGy_o_F9zT-46" value=" - servers：vector&lt;ISrsHybridServer*&gt;" style="text;strokeColor=none;fillColor=none;align=left;verticalAlign=top;spacingLeft=4;spacingRight=4;overflow=hidden;rotatable=0;points=[[0,0.5],[1,0.5]];portConstraint=eastwest;" vertex="1" parent="gbzLaKsE3nWGy_o_F9zT-45">
          <mxGeometry y="26" width="370" height="26" as="geometry" />
        </mxCell>
        <mxCell id="gbzLaKsE3nWGy_o_F9zT-60" value="1" style="endArrow=open;html=1;endSize=12;startArrow=diamondThin;startSize=14;startFill=1;edgeStyle=orthogonalEdgeStyle;align=left;verticalAlign=bottom;entryX=0.5;entryY=0;entryDx=0;entryDy=0;" edge="1" parent="gbzLaKsE3nWGy_o_F9zT-45" target="gbzLaKsE3nWGy_o_F9zT-49">
          <mxGeometry x="-1" y="3" relative="1" as="geometry">
            <mxPoint y="38.5" as="sourcePoint" />
            <mxPoint x="160" y="38.5" as="targetPoint" />
          </mxGeometry>
        </mxCell>
        <mxCell id="gbzLaKsE3nWGy_o_F9zT-47" value="" style="line;strokeWidth=1;fillColor=none;align=left;verticalAlign=middle;spacingTop=-1;spacingLeft=3;spacingRight=3;rotatable=0;labelPosition=right;points=[];portConstraint=eastwest;" vertex="1" parent="gbzLaKsE3nWGy_o_F9zT-45">
          <mxGeometry y="52" width="370" height="8" as="geometry" />
        </mxCell>
        <mxCell id="gbzLaKsE3nWGy_o_F9zT-48" value="+ register_server(ISrsHybridServer* svr)：void 添加到集合&#xa;+ initialize()：srs_error_t     &#xa;+ run()：srs_error_t     &#xa;+stop()：void     &#xa;+srs()：SrsServerAdapter*" style="text;strokeColor=none;fillColor=none;align=left;verticalAlign=top;spacingLeft=4;spacingRight=4;overflow=hidden;rotatable=0;points=[[0,0.5],[1,0.5]];portConstraint=eastwest;" vertex="1" parent="gbzLaKsE3nWGy_o_F9zT-45">
          <mxGeometry y="60" width="370" height="80" as="geometry" />
        </mxCell>
        <mxCell id="gbzLaKsE3nWGy_o_F9zT-49" value="class SrsServerAdapter" style="swimlane;fontStyle=1;align=center;verticalAlign=top;childLayout=stackLayout;horizontal=1;startSize=26;horizontalStack=0;resizeParent=1;resizeParentMax=0;resizeLast=0;collapsible=1;marginBottom=0;" vertex="1" parent="1">
          <mxGeometry x="360" y="360" width="150" height="130" as="geometry" />
        </mxCell>
        <mxCell id="gbzLaKsE3nWGy_o_F9zT-50" value="- srs：SrsServer*" style="text;strokeColor=none;fillColor=none;align=left;verticalAlign=top;spacingLeft=4;spacingRight=4;overflow=hidden;rotatable=0;points=[[0,0.5],[1,0.5]];portConstraint=eastwest;" vertex="1" parent="gbzLaKsE3nWGy_o_F9zT-49">
          <mxGeometry y="26" width="150" height="26" as="geometry" />
        </mxCell>
        <mxCell id="gbzLaKsE3nWGy_o_F9zT-51" value="" style="line;strokeWidth=1;fillColor=none;align=left;verticalAlign=middle;spacingTop=-1;spacingLeft=3;spacingRight=3;rotatable=0;labelPosition=right;points=[];portConstraint=eastwest;" vertex="1" parent="gbzLaKsE3nWGy_o_F9zT-49">
          <mxGeometry y="52" width="150" height="8" as="geometry" />
        </mxCell>
        <mxCell id="gbzLaKsE3nWGy_o_F9zT-52" value="+ initialize()：srs_error_t &#xa;+ run()：srs_error_t     &#xa;+ stop()：void     &#xa;+ instance()： SrsServer*" style="text;strokeColor=none;fillColor=none;align=left;verticalAlign=top;spacingLeft=4;spacingRight=4;overflow=hidden;rotatable=0;points=[[0,0.5],[1,0.5]];portConstraint=eastwest;" vertex="1" parent="gbzLaKsE3nWGy_o_F9zT-49">
          <mxGeometry y="60" width="150" height="70" as="geometry" />
        </mxCell>
        <mxCell id="gbzLaKsE3nWGy_o_F9zT-41" value="class ISrsHybridServer" style="swimlane;fontStyle=1;align=center;verticalAlign=top;childLayout=stackLayout;horizontal=1;startSize=26;horizontalStack=0;resizeParent=1;resizeParentMax=0;resizeLast=0;collapsible=1;marginBottom=0;" vertex="1" parent="1">
          <mxGeometry x="160" y="80" width="170" height="90" as="geometry" />
        </mxCell>
        <mxCell id="gbzLaKsE3nWGy_o_F9zT-43" value="" style="line;strokeWidth=1;fillColor=none;align=left;verticalAlign=middle;spacingTop=-1;spacingLeft=3;spacingRight=3;rotatable=0;labelPosition=right;points=[];portConstraint=eastwest;" vertex="1" parent="gbzLaKsE3nWGy_o_F9zT-41">
          <mxGeometry y="26" width="170" height="8" as="geometry" />
        </mxCell>
        <mxCell id="gbzLaKsE3nWGy_o_F9zT-44" value="+  initialize()： srs_error_t&#xa; + run()：srs_error_t &#xa;+ stop()：void " style="text;strokeColor=none;fillColor=none;align=left;verticalAlign=top;spacingLeft=4;spacingRight=4;overflow=hidden;rotatable=0;points=[[0,0.5],[1,0.5]];portConstraint=eastwest;" vertex="1" parent="gbzLaKsE3nWGy_o_F9zT-41">
          <mxGeometry y="34" width="170" height="56" as="geometry" />
        </mxCell>
        <mxCell id="gbzLaKsE3nWGy_o_F9zT-58" value="" style="endArrow=block;dashed=1;endFill=0;endSize=12;html=1;entryX=0.441;entryY=1.054;entryDx=0;entryDy=0;entryPerimeter=0;exitX=0.42;exitY=-0.008;exitDx=0;exitDy=0;exitPerimeter=0;" edge="1" parent="1" source="gbzLaKsE3nWGy_o_F9zT-49" target="gbzLaKsE3nWGy_o_F9zT-44">
          <mxGeometry width="160" relative="1" as="geometry">
            <mxPoint x="130" y="250" as="sourcePoint" />
            <mxPoint x="290" y="250" as="targetPoint" />
          </mxGeometry>
        </mxCell>
        <mxCell id="gbzLaKsE3nWGy_o_F9zT-61" value="n" style="text;html=1;align=center;verticalAlign=middle;resizable=0;points=[];autosize=1;" vertex="1" parent="1">
          <mxGeometry x="430" y="90" width="20" height="20" as="geometry" />
        </mxCell>
      </root>
    </mxGraphModel>
  </diagram>
</mxfile>
